<svg viewBox="0 0 1240 123" fill="none" xmlns="http://www.w3.org/2000/svg">
<path d="M0.69 122L55.108 1.16499H96.851L151.269 122H121.863L110.371 96.481H41.588L30.096 122H0.69ZM51.39 74.511H100.569L77.078 22.29H74.881L51.39 74.511ZM146.221 122V1.16499H173.599L259.113 88.031V1.16499H286.153V122H258.775L173.261 34.965V122H146.221ZM281.045 122L335.463 1.16499H377.206L431.624 122H402.218L390.726 96.481H321.943L310.451 122H281.045ZM331.745 74.511H380.924L357.433 22.29H355.236L331.745 74.511ZM422.69 122.845V100.875L519.865 101.044C524.822 101.044 528.596 99.9173 531.188 97.664C533.892 95.298 535.244 91.5237 535.244 86.341C535.244 81.1583 533.892 77.4403 531.188 75.187C528.596 72.821 524.822 71.638 519.865 71.638H459.363C446.857 71.638 437.111 68.6523 430.126 62.681C423.253 56.597 419.817 47.6963 419.817 35.979C419.817 24.2617 423.253 15.4173 430.126 9.446C437.111 3.362 446.857 0.319995 459.363 0.319995H554.341V22.29L462.236 22.121C457.391 22.121 453.617 23.2477 450.913 25.501C448.209 27.6417 446.857 31.1343 446.857 35.979C446.857 40.8237 448.209 44.3727 450.913 46.626C453.617 48.7667 457.391 49.837 462.236 49.837H522.738C535.244 49.837 544.933 52.9353 551.806 59.132C558.791 65.216 562.284 74.2857 562.284 86.341C562.284 98.2837 558.791 107.353 551.806 113.55C544.933 119.747 535.244 122.845 522.738 122.845H422.69ZM556.423 62.343V1.16499H705.143V62.343H677.765V23.135H640.923V122H613.883V23.135H583.801V62.343H556.423ZM678.968 122L733.386 1.16499H775.129L829.547 122H800.141L788.649 96.481H719.866L708.374 122H678.968ZM729.668 74.511H778.847L755.356 22.29H753.159L729.668 74.511ZM820.612 122.845V100.875L917.787 101.044C922.744 101.044 926.519 99.9173 929.11 97.664C931.814 95.298 933.166 91.5237 933.166 86.341C933.166 81.1583 931.814 77.4403 929.11 75.187C926.519 72.821 922.744 71.638 917.787 71.638H857.285C844.779 71.638 835.033 68.6523 828.048 62.681C821.175 56.597 817.739 47.6963 817.739 35.979C817.739 24.2617 821.175 15.4173 828.048 9.446C835.033 3.362 844.779 0.319995 857.285 0.319995H952.263V22.29L860.158 22.121C855.313 22.121 851.539 23.2477 848.835 25.501C846.131 27.6417 844.779 31.1343 844.779 35.979C844.779 40.8237 846.131 44.3727 848.835 46.626C851.539 48.7667 855.313 49.837 860.158 49.837H920.66C933.166 49.837 942.855 52.9353 949.728 59.132C956.713 65.216 960.206 74.2857 960.206 86.341C960.206 98.2837 956.713 107.353 949.728 113.55C942.855 119.747 933.166 122.845 920.66 122.845H820.612ZM958.57 122V1.16499H985.61V122H958.57ZM1042.87 122V78.905L978.817 1.16499H1012.28L1056.39 55.921L1100.33 1.16499H1133.79L1070.08 78.736V122H1042.87ZM1089 122L1143.42 1.16499H1185.16L1239.58 122H1210.17L1198.68 96.481H1129.9L1118.4 122H1089ZM1139.7 74.511H1188.88L1165.39 22.29H1163.19L1139.7 74.511Z" fill="white"/>
</svg>
