<svg viewBox="0 0 1440 445" fill="none" xmlns="http://www.w3.org/2000/svg">
<g filter="url(#filter0_d_16_333)">
<mask id="path-1-outside-1_16_333" maskUnits="userSpaceOnUse" x="-2" y="40" width="1420" height="365" fill="black">
<rect fill="white" x="-2" y="40" width="1420" height="365"/>
<path d="M4.64574 396L141.761 49.5H204.131L342.236 396H284.321L173.441 103.95H171.956L59.0957 396H4.64574ZM80.3807 319.275V272.745H264.521V319.275H80.3807ZM477.112 400.95C457.972 400.95 439.987 399.63 423.157 396.99C406.657 394.35 391.807 391.215 378.607 387.585L349.402 379.17L358.312 339.075L391.972 345.015C404.512 347.655 418.537 349.8 434.047 351.45C449.887 353.1 464.077 353.925 476.617 353.925C502.687 353.925 522.322 349.47 535.522 340.56C549.052 331.32 555.817 318.12 555.817 300.96C555.817 292.05 553.672 284.46 549.382 278.19C545.092 271.92 536.842 265.815 524.632 259.875C512.422 253.935 494.437 247.5 470.677 240.57C442.627 232.32 420.352 224.235 403.852 216.315C387.352 208.065 375.472 198.33 368.212 187.11C361.282 175.56 357.817 160.71 357.817 142.56C357.817 119.46 363.592 100.815 375.142 86.625C387.022 72.105 403.027 61.545 423.157 54.945C443.287 48.015 465.562 44.55 489.982 44.55C504.832 44.55 520.177 45.705 536.017 48.015C551.857 50.325 567.532 53.79 583.042 58.41L602.347 63.36L594.427 102.96L568.687 99C556.477 97.02 543.772 95.205 530.572 93.555C517.372 91.905 504.502 91.08 491.962 91.08C465.892 91.08 445.927 95.37 432.067 103.95C418.207 112.53 411.277 125.235 411.277 142.065C411.277 150.645 413.422 157.74 417.712 163.35C422.332 168.96 430.912 174.075 443.452 178.695C456.322 183.315 474.967 189.255 499.387 196.515C526.777 203.775 548.557 211.86 564.727 220.77C581.227 229.68 592.942 240.075 599.872 251.955C607.132 263.835 610.762 278.52 610.762 296.01C610.762 320.1 604.822 339.9 592.942 355.41C581.062 370.92 565.057 382.47 544.927 390.06C524.797 397.32 502.192 400.95 477.112 400.95ZM664.233 396V49.5H813.228C838.638 49.5 860.418 53.955 878.568 62.865C896.718 71.775 910.578 84.645 920.148 101.475C929.718 118.305 934.503 138.765 934.503 162.855C934.503 186.945 929.553 207.9 919.653 225.72C909.753 243.21 895.728 256.74 877.578 266.31C859.428 275.88 837.978 280.665 813.228 280.665H716.208L716.703 396H664.233ZM716.703 234.135H806.793C830.223 234.135 848.373 228.36 861.243 216.81C874.113 204.93 880.548 187.275 880.548 163.845C880.548 139.755 874.113 122.43 861.243 111.87C848.373 101.31 830.223 96.03 806.793 96.03H716.703V234.135ZM981.478 396V49.5H1033.95V396H981.478ZM1107.3 396V49.5H1233.52C1269.82 49.5 1301.34 56.265 1328.07 69.795C1355.13 83.325 1376.08 103.125 1390.93 129.195C1405.78 154.935 1413.21 186.285 1413.21 223.245C1413.21 258.885 1405.62 289.74 1390.44 315.81C1375.59 341.55 1354.3 361.35 1326.58 375.21C1299.19 389.07 1266.52 396 1228.57 396H1107.3ZM1159.77 349.47H1231.54C1258.93 349.47 1282.03 344.52 1300.84 334.62C1319.98 324.39 1334.5 310.035 1344.4 291.555C1354.3 272.745 1359.25 249.975 1359.25 223.245C1359.25 195.195 1354.3 171.765 1344.4 152.955C1334.83 133.815 1320.64 119.625 1301.83 110.385C1283.02 100.815 1259.59 96.03 1231.54 96.03H1159.77V349.47Z"/>
</mask>
<path d="M4.64574 396L0.926357 394.528L-1.23892 400H4.64574V396ZM141.761 49.5V45.5H139.042L138.041 48.0282L141.761 49.5ZM204.131 49.5L207.846 48.019L206.842 45.5H204.131V49.5ZM342.236 396V400H348.136L345.951 394.519L342.236 396ZM284.321 396L280.581 397.42L281.561 400H284.321V396ZM173.441 103.95L177.18 102.53L176.201 99.95H173.441V103.95ZM171.956 103.95V99.95H169.213L168.225 102.508L171.956 103.95ZM59.0957 396V400H61.8383L62.8268 397.442L59.0957 396ZM80.3807 319.275H76.3807V323.275H80.3807V319.275ZM80.3807 272.745V268.745H76.3807V272.745H80.3807ZM264.521 272.745H268.521V268.745H264.521V272.745ZM264.521 319.275V323.275H268.521V319.275H264.521ZM8.36511 397.472L145.48 50.9718L138.041 48.0282L0.926357 394.528L8.36511 397.472ZM141.761 53.5H204.131V45.5H141.761V53.5ZM200.415 50.981L338.52 397.481L345.951 394.519L207.846 48.019L200.415 50.981ZM342.236 392H284.321V400H342.236V392ZM288.06 394.58L177.18 102.53L169.701 105.37L280.581 397.42L288.06 394.58ZM173.441 99.95H171.956V107.95H173.441V99.95ZM168.225 102.508L55.3646 394.558L62.8268 397.442L175.687 105.392L168.225 102.508ZM59.0957 392H4.64574V400H59.0957V392ZM84.3807 319.275V272.745H76.3807V319.275H84.3807ZM80.3807 276.745H264.521V268.745H80.3807V276.745ZM260.521 272.745V319.275H268.521V272.745H260.521ZM264.521 315.275H80.3807V323.275H264.521V315.275ZM423.157 396.99L422.525 400.94L422.537 400.942L423.157 396.99ZM378.607 387.585L377.499 391.429L377.523 391.435L377.546 391.442L378.607 387.585ZM349.402 379.17L345.497 378.302L344.681 381.973L348.294 383.014L349.402 379.17ZM358.312 339.075L359.007 335.136L355.237 334.471L354.407 338.207L358.312 339.075ZM391.972 345.015L392.796 341.101L392.731 341.087L392.667 341.076L391.972 345.015ZM434.047 351.45L433.623 355.428L433.632 355.428L434.047 351.45ZM535.522 340.56L537.76 343.875L537.769 343.869L537.777 343.863L535.522 340.56ZM549.382 278.19L552.683 275.931L552.683 275.931L549.382 278.19ZM470.677 240.57L469.548 244.407L469.557 244.41L470.677 240.57ZM403.852 216.315L402.063 219.893L402.092 219.907L402.121 219.921L403.852 216.315ZM368.212 187.11L364.782 189.168L364.817 189.226L364.853 189.283L368.212 187.11ZM375.142 86.625L372.046 84.092L372.039 84.0999L375.142 86.625ZM423.157 54.945L424.403 58.7459L424.431 58.7367L424.459 58.7271L423.157 54.945ZM536.017 48.015L535.439 51.9731L535.439 51.9731L536.017 48.015ZM583.042 58.41L581.9 62.2435L581.974 62.2655L582.048 62.2846L583.042 58.41ZM602.347 63.36L606.269 64.1444L607.012 60.4269L603.34 59.4853L602.347 63.36ZM594.427 102.96L593.818 106.913L597.599 107.495L598.349 103.744L594.427 102.96ZM568.687 99L568.046 102.948L568.062 102.951L568.078 102.953L568.687 99ZM530.572 93.555L530.075 97.5241L530.075 97.5241L530.572 93.555ZM432.067 103.95L434.172 107.351L434.172 107.351L432.067 103.95ZM417.712 163.35L414.534 165.78L414.578 165.837L414.624 165.893L417.712 163.35ZM443.452 178.695L442.069 182.448L442.084 182.454L442.1 182.46L443.452 178.695ZM499.387 196.515L498.247 200.349L498.304 200.366L498.362 200.381L499.387 196.515ZM564.727 220.77L562.796 224.273L562.811 224.282L562.826 224.29L564.727 220.77ZM599.872 251.955L596.417 253.97L596.437 254.006L596.459 254.041L599.872 251.955ZM592.942 355.41L596.117 357.842L596.117 357.842L592.942 355.41ZM544.927 390.06L546.284 393.823L546.311 393.813L546.338 393.803L544.927 390.06ZM477.112 396.95C458.154 396.95 440.378 395.643 423.777 393.038L422.537 400.942C439.595 403.617 457.789 404.95 477.112 404.95V396.95ZM423.789 393.04C407.403 390.419 392.699 387.312 379.667 383.728L377.546 391.442C390.914 395.118 405.91 398.281 422.525 400.94L423.789 393.04ZM379.714 383.741L350.509 375.326L348.294 383.014L377.499 391.429L379.714 383.741ZM353.306 380.038L362.216 339.943L354.407 338.207L345.497 378.302L353.306 380.038ZM357.616 343.014L391.276 348.954L392.667 341.076L359.007 335.136L357.616 343.014ZM391.148 348.929C403.845 351.602 418.007 353.766 433.623 355.428L434.47 347.472C419.067 345.834 405.178 343.708 392.796 341.101L391.148 348.929ZM433.632 355.428C449.575 357.089 463.907 357.925 476.617 357.925V349.925C464.246 349.925 450.198 349.111 434.461 347.472L433.632 355.428ZM476.617 357.925C503.024 357.925 523.599 353.434 537.76 343.875L533.284 337.245C521.044 345.506 502.35 349.925 476.617 349.925V357.925ZM537.777 343.863C552.459 333.837 559.817 319.367 559.817 300.96H551.817C551.817 316.873 545.644 328.803 533.266 337.257L537.777 343.863ZM559.817 300.96C559.817 291.387 557.503 282.975 552.683 275.931L546.08 280.449C549.841 285.945 551.817 292.713 551.817 300.96H559.817ZM552.683 275.931C547.801 268.796 538.794 262.316 526.382 256.278L522.882 263.472C534.89 269.314 542.382 275.044 546.08 280.449L552.683 275.931ZM526.382 256.278C513.867 250.19 495.628 243.681 471.797 236.73L469.557 244.41C493.245 251.319 510.976 257.68 522.882 263.472L526.382 256.278ZM471.805 236.733C443.855 228.512 421.809 220.498 405.583 212.709L402.121 219.921C418.894 227.972 441.398 236.128 469.548 244.407L471.805 236.733ZM405.64 212.737C389.547 204.691 378.321 195.371 371.57 184.937L364.853 189.283C372.622 201.289 385.156 211.439 402.063 219.893L405.64 212.737ZM371.642 185.052C365.193 174.304 361.817 160.229 361.817 142.56H353.817C353.817 161.191 357.371 176.816 364.782 189.168L371.642 185.052ZM361.817 142.56C361.817 120.133 367.413 102.456 378.244 89.1501L372.039 84.0999C359.77 99.1738 353.817 118.787 353.817 142.56H361.817ZM378.237 89.158C389.574 75.3022 404.901 65.1399 424.403 58.7459L421.91 51.1441C401.152 57.9501 384.469 68.9078 372.046 84.092L378.237 89.158ZM424.459 58.7271C444.113 51.9608 465.941 48.55 489.982 48.55V40.55C465.183 40.55 442.46 44.0691 421.855 51.1628L424.459 58.7271ZM489.982 48.55C504.624 48.55 519.776 49.6889 535.439 51.9731L536.594 44.0569C520.577 41.7211 505.039 40.55 489.982 40.55V48.55ZM535.439 51.9731C551.086 54.255 566.573 57.678 581.9 62.2435L584.184 54.5764C568.491 49.9019 552.627 46.395 536.594 44.0569L535.439 51.9731ZM582.048 62.2846L601.353 67.2346L603.34 59.4853L584.035 54.5353L582.048 62.2846ZM598.424 62.5755L590.504 102.176L598.349 103.744L606.269 64.1444L598.424 62.5755ZM595.035 99.0065L569.295 95.0465L568.078 102.953L593.818 106.913L595.035 99.0065ZM569.327 95.0516C557.066 93.0632 544.312 91.2415 531.068 89.5859L530.075 97.5241C543.231 99.1685 555.888 100.977 568.046 102.948L569.327 95.0516ZM531.068 89.5859C517.713 87.9165 504.677 87.08 491.962 87.08V95.08C504.326 95.08 517.03 95.8934 530.075 97.5241L531.068 89.5859ZM491.962 87.08C465.552 87.08 444.727 91.4084 429.961 100.549L434.172 107.351C447.127 99.3316 466.231 95.08 491.962 95.08V87.08ZM429.961 100.549C414.878 109.886 407.277 123.904 407.277 142.065H415.277C415.277 126.566 421.536 115.174 434.172 107.351L429.961 100.549ZM407.277 142.065C407.277 151.329 409.604 159.332 414.534 165.78L420.889 160.92C417.239 156.148 415.277 149.961 415.277 142.065H407.277ZM414.624 165.893C419.934 172.34 429.338 177.758 442.069 182.448L444.834 174.942C432.486 170.392 424.73 165.58 420.799 160.807L414.624 165.893ZM442.1 182.46C455.076 187.118 473.805 193.083 498.247 200.349L500.527 192.681C476.128 185.427 457.567 179.512 444.803 174.93L442.1 182.46ZM498.362 200.381C525.585 207.597 547.021 215.581 562.796 224.273L566.657 217.267C550.092 208.139 527.968 199.953 500.411 192.649L498.362 200.381ZM562.826 224.29C578.906 232.973 589.968 242.916 596.417 253.97L603.327 249.94C595.915 237.234 583.547 226.387 566.627 217.25L562.826 224.29ZM596.459 254.041C603.248 265.15 606.762 279.069 606.762 296.01H614.762C614.762 277.971 611.016 262.52 603.285 249.869L596.459 254.041ZM606.762 296.01C606.762 319.43 600.997 338.316 589.766 352.978L596.117 357.842C608.647 341.484 614.762 320.77 614.762 296.01H606.762ZM589.766 352.978C578.386 367.836 563.02 378.963 543.515 386.317L546.338 393.803C567.094 385.977 583.738 374.004 596.117 357.842L589.766 352.978ZM543.57 386.297C523.943 393.376 501.807 396.95 477.112 396.95V404.95C502.576 404.95 525.651 401.264 546.284 393.823L543.57 386.297ZM664.233 396H660.233V400H664.233V396ZM664.233 49.5V45.5H660.233V49.5H664.233ZM920.148 101.475L916.671 103.452L916.671 103.452L920.148 101.475ZM919.653 225.72L923.134 227.69L923.142 227.677L923.15 227.663L919.653 225.72ZM877.578 266.31L875.713 262.772L875.713 262.772L877.578 266.31ZM716.208 280.665V276.665H712.191L712.208 280.682L716.208 280.665ZM716.703 396V400H720.72L720.703 395.983L716.703 396ZM716.703 234.135H712.703V238.135H716.703V234.135ZM861.243 216.81L863.915 219.787L863.936 219.768L863.956 219.749L861.243 216.81ZM861.243 111.87L858.706 114.962L858.706 114.962L861.243 111.87ZM716.703 96.03V92.03H712.703V96.03H716.703ZM668.233 396V49.5H660.233V396H668.233ZM664.233 53.5H813.228V45.5H664.233V53.5ZM813.228 53.5C838.18 53.5 859.327 57.875 876.806 66.4557L880.331 59.2743C861.51 50.0349 839.097 45.5 813.228 45.5V53.5ZM876.806 66.4557C894.269 75.0286 907.516 87.3519 916.671 103.452L923.625 99.4978C913.64 81.9381 899.168 68.5214 880.331 59.2743L876.806 66.4557ZM916.671 103.452C925.824 119.549 930.503 139.291 930.503 162.855H938.503C938.503 138.239 933.612 117.061 923.625 99.4978L916.671 103.452ZM930.503 162.855C930.503 186.389 925.671 206.651 916.157 223.777L923.15 227.663C933.435 209.149 938.503 187.501 938.503 162.855H930.503ZM916.172 223.75C906.658 240.558 893.2 253.551 875.713 262.772L879.444 269.848C898.256 259.929 912.849 245.862 923.134 227.69L916.172 223.75ZM875.713 262.772C858.245 271.982 837.461 276.665 813.228 276.665V284.665C838.495 284.665 860.612 279.778 879.444 269.848L875.713 262.772ZM813.228 276.665H716.208V284.665H813.228V276.665ZM712.208 280.682L712.703 396.017L720.703 395.983L720.208 280.648L712.208 280.682ZM716.703 392H664.233V400H716.703V392ZM716.703 238.135H806.793V230.135H716.703V238.135ZM806.793 238.135C830.856 238.135 850.084 232.199 863.915 219.787L858.572 213.833C846.662 224.521 829.591 230.135 806.793 230.135V238.135ZM863.956 219.749C877.897 206.881 884.548 187.997 884.548 163.845H876.548C876.548 186.553 870.329 202.979 858.53 213.871L863.956 219.749ZM884.548 163.845C884.548 139.111 877.933 120.39 863.78 108.778L858.706 114.962C870.293 124.47 876.548 140.399 876.548 163.845H884.548ZM863.78 108.778C849.953 97.432 830.777 92.03 806.793 92.03V100.03C829.669 100.03 846.794 105.188 858.706 114.962L863.78 108.778ZM806.793 92.03H716.703V100.03H806.793V92.03ZM712.703 96.03V234.135H720.703V96.03H712.703ZM981.478 396H977.478V400H981.478V396ZM981.478 49.5V45.5H977.478V49.5H981.478ZM1033.95 49.5H1037.95V45.5H1033.95V49.5ZM1033.95 396V400H1037.95V396H1033.95ZM985.478 396V49.5H977.478V396H985.478ZM981.478 53.5H1033.95V45.5H981.478V53.5ZM1029.95 49.5V396H1037.95V49.5H1029.95ZM1033.95 392H981.478V400H1033.95V392ZM1107.3 396H1103.3V400H1107.3V396ZM1107.3 49.5V45.5H1103.3V49.5H1107.3ZM1328.07 69.795L1326.26 73.3638L1326.27 73.3683L1326.28 73.3727L1328.07 69.795ZM1390.93 129.195L1387.46 131.175L1387.46 131.184L1387.47 131.194L1390.93 129.195ZM1390.44 315.81L1386.98 313.797L1386.98 313.804L1386.97 313.811L1390.44 315.81ZM1326.58 375.21L1324.79 371.632L1324.78 371.637L1324.78 371.641L1326.58 375.21ZM1159.77 349.47H1155.77V353.47H1159.77V349.47ZM1300.84 334.62L1302.7 338.16L1302.72 338.154L1302.73 338.148L1300.84 334.62ZM1344.4 291.555L1347.93 293.444L1347.93 293.431L1347.94 293.418L1344.4 291.555ZM1344.4 152.955L1340.82 154.744L1340.84 154.781L1340.86 154.818L1344.4 152.955ZM1301.83 110.385L1300.02 113.95L1300.04 113.963L1300.07 113.975L1301.83 110.385ZM1159.77 96.03V92.03H1155.77V96.03H1159.77ZM1111.3 396V49.5H1103.3V396H1111.3ZM1107.3 53.5H1233.52V45.5H1107.3V53.5ZM1233.52 53.5C1269.33 53.5 1300.2 60.1711 1326.26 73.3638L1329.87 66.2261C1302.48 52.3588 1270.32 45.5 1233.52 45.5V53.5ZM1326.28 73.3727C1352.64 86.5519 1373 105.799 1387.46 131.175L1394.41 127.215C1379.16 100.451 1357.62 80.0981 1329.86 66.2173L1326.28 73.3727ZM1387.47 131.194C1401.89 156.195 1409.21 186.817 1409.21 223.245H1417.21C1417.21 185.753 1409.67 153.675 1394.4 127.196L1387.47 131.194ZM1409.21 223.245C1409.21 258.307 1401.74 288.441 1386.98 313.797L1393.89 317.823C1409.49 291.039 1417.21 259.463 1417.21 223.245H1409.21ZM1386.97 313.811C1372.53 338.842 1351.84 358.107 1324.79 371.632L1328.37 378.788C1356.76 364.593 1378.64 344.258 1393.9 317.809L1386.97 313.811ZM1324.78 371.641C1298.06 385.159 1266.04 392 1228.57 392V400C1267 400 1300.32 392.981 1328.39 378.779L1324.78 371.641ZM1228.57 392H1107.3V400H1228.57V392ZM1159.77 353.47H1231.54V345.47H1159.77V353.47ZM1231.54 353.47C1259.4 353.47 1283.18 348.437 1302.7 338.16L1298.98 331.08C1280.89 340.603 1258.46 345.47 1231.54 345.47V353.47ZM1302.73 338.148C1322.54 327.559 1337.64 312.646 1347.93 293.444L1340.88 289.666C1331.36 307.424 1317.43 321.221 1298.96 331.092L1302.73 338.148ZM1347.94 293.418C1358.21 273.904 1363.25 250.461 1363.25 223.245H1355.25C1355.25 249.489 1350.39 271.586 1340.86 289.692L1347.94 293.418ZM1363.25 223.245C1363.25 194.746 1358.23 170.63 1347.94 151.092L1340.86 154.818C1350.38 172.9 1355.25 195.644 1355.25 223.245H1363.25ZM1347.98 151.166C1338.03 131.261 1323.21 116.429 1303.6 106.795L1300.07 113.975C1318.08 122.821 1331.64 136.369 1340.82 154.744L1347.98 151.166ZM1303.65 106.82C1284.12 96.8857 1260.02 92.03 1231.54 92.03V100.03C1259.16 100.03 1281.92 104.744 1300.02 113.95L1303.65 106.82ZM1231.54 92.03H1159.77V100.03H1231.54V92.03ZM1155.77 96.03V349.47H1163.77V96.03H1155.77Z" fill="#4EE3C6" mask="url(#path-1-outside-1_16_333)"/>
</g>
<defs>
<filter id="filter0_d_16_333" x="-41.2389" y="0.549988" width="1498.45" height="444.4" filterUnits="userSpaceOnUse" color-interpolation-filters="sRGB">
<feFlood flood-opacity="0" result="BackgroundImageFix"/>
<feColorMatrix in="SourceAlpha" type="matrix" values="0 0 0 0 0 0 0 0 0 0 0 0 0 0 0 0 0 0 127 0" result="hardAlpha"/>
<feOffset/>
<feGaussianBlur stdDeviation="20"/>
<feComposite in2="hardAlpha" operator="out"/>
<feColorMatrix type="matrix" values="0 0 0 0 0.305882 0 0 0 0 0.890196 0 0 0 0 0.776471 0 0 0 1 0"/>
<feBlend mode="normal" in2="BackgroundImageFix" result="effect1_dropShadow_16_333"/>
<feBlend mode="normal" in="SourceGraphic" in2="effect1_dropShadow_16_333" result="shape"/>
</filter>
</defs>
</svg>
